<svg xmlns="http://www.w3.org/2000/svg" xmlns:xlink="http://www.w3.org/1999/xlink" width="50" zoomAndPan="magnify" viewBox="0 0 37.5 37.499999" height="50" preserveAspectRatio="xMidYMid meet" version="1.0"><defs><g/><clipPath id="5fe8a3d540"><path d="M 17 6 L 32 6 L 32 31 L 17 31 Z M 17 6 " clip-rule="nonzero"/></clipPath><clipPath id="a56b82f3aa"><path d="M 1.882812 27.683594 L 6.324219 3.667969 L 33.253906 8.644531 L 28.8125 32.660156 Z M 1.882812 27.683594 " clip-rule="nonzero"/></clipPath><clipPath id="b4d2df5253"><path d="M 6.316406 3.699219 L 1.878906 27.71875 L 28.804688 32.695312 L 33.246094 8.679688 Z M 6.316406 3.699219 " clip-rule="nonzero"/></clipPath><clipPath id="0d29b8fb14"><path d="M 17.132812 5.699219 L 12.777344 29.261719 L 28.941406 32.25 L 33.296875 8.6875 Z M 17.132812 5.699219 " clip-rule="nonzero"/></clipPath><clipPath id="0eca790567"><path d="M 4 7 L 22 7 L 22 14 L 4 14 Z M 4 7 " clip-rule="nonzero"/></clipPath><clipPath id="71c91922b3"><path d="M 1.882812 27.683594 L 6.324219 3.667969 L 33.253906 8.644531 L 28.8125 32.660156 Z M 1.882812 27.683594 " clip-rule="nonzero"/></clipPath><clipPath id="372d414471"><path d="M 6.316406 3.699219 L 1.878906 27.71875 L 28.804688 32.695312 L 33.246094 8.679688 Z M 6.316406 3.699219 " clip-rule="nonzero"/></clipPath><clipPath id="f69c49b4e8"><path d="M 5 23 L 22 23 L 22 30 L 5 30 Z M 5 23 " clip-rule="nonzero"/></clipPath><clipPath id="3bb7d5c036"><path d="M 1.882812 27.683594 L 6.324219 3.667969 L 33.253906 8.644531 L 28.8125 32.660156 Z M 1.882812 27.683594 " clip-rule="nonzero"/></clipPath><clipPath id="a6df294e70"><path d="M 6.316406 3.699219 L 1.878906 27.71875 L 28.804688 32.695312 L 33.246094 8.679688 Z M 6.316406 3.699219 " clip-rule="nonzero"/></clipPath><clipPath id="0d77b82471"><path d="M 27 12 L 37.007812 12 L 37.007812 21 L 27 21 Z M 27 12 " clip-rule="nonzero"/></clipPath></defs><g clip-path="url(#5fe8a3d540)"><g clip-path="url(#a56b82f3aa)"><g clip-path="url(#b4d2df5253)"><g clip-path="url(#0d29b8fb14)"><path fill="#af0000" d="M 19.53125 29.652344 C 22 28.675781 24.167969 26.695312 25.476562 24.222656 C 25.558594 24.058594 25.652344 23.867188 25.75 23.648438 C 26.5 21.945312 26.878906 20.0625 26.847656 18.195312 C 26.847656 18.121094 26.84375 18.042969 26.839844 17.96875 C 26.839844 17.890625 26.835938 17.8125 26.832031 17.738281 C 26.730469 15.871094 26.222656 14.023438 25.351562 12.375 C 25.238281 12.164062 25.132812 11.980469 25.035156 11.824219 C 23.558594 9.449219 21.257812 7.625 18.722656 6.824219 C 18.164062 6.648438 17.601562 6.507812 17.039062 6.394531 C 18.984375 6.152344 21.121094 6.257812 23.371094 6.96875 C 25.917969 7.773438 28.136719 9.578125 29.550781 11.851562 C 29.652344 12.015625 29.757812 12.203125 29.867188 12.40625 C 31.652344 15.785156 31.796875 19.804688 30.253906 23.300781 C 30.160156 23.507812 30.066406 23.703125 29.976562 23.878906 C 28.726562 26.242188 26.640625 28.199219 24.15625 29.183594 C 21.964844 30.050781 19.839844 30.304688 17.878906 30.203125 C 18.4375 30.050781 18.988281 29.867188 19.53125 29.652344 " fill-opacity="1" fill-rule="nonzero"/></g></g></g></g><g clip-path="url(#0eca790567)"><g clip-path="url(#71c91922b3)"><g clip-path="url(#372d414471)"><path fill="#af0000" d="M 20.746094 9.472656 C 20.953125 9.671875 21.148438 9.882812 21.332031 10.097656 C 21.011719 9.980469 20.675781 9.878906 20.324219 9.792969 C 15.378906 8.621094 10.351562 11.023438 6.589844 13.464844 L 4.933594 11.21875 C 5.449219 10.773438 5.988281 10.335938 6.550781 9.910156 L 7.207031 10.714844 C 7.738281 10.328125 9.28125 9.109375 11.515625 8.046875 C 14.597656 6.582031 18.28125 7.109375 20.746094 9.472656 " fill-opacity="1" fill-rule="nonzero"/></g></g></g><g clip-path="url(#f69c49b4e8)"><g clip-path="url(#3bb7d5c036)"><g clip-path="url(#a6df294e70)"><path fill="#af0000" d="M 21.359375 26.871094 C 21.554688 26.65625 21.734375 26.433594 21.902344 26.203125 C 21.589844 26.347656 21.265625 26.472656 20.917969 26.578125 C 16.070312 28.101562 10.882812 26.058594 6.960938 23.890625 L 5.464844 26.25 C 6.011719 26.652344 6.582031 27.054688 7.171875 27.4375 L 7.769531 26.589844 C 8.324219 26.9375 9.953125 28.042969 12.257812 28.945312 C 15.433594 30.1875 19.070312 29.402344 21.359375 26.871094 " fill-opacity="1" fill-rule="nonzero"/></g></g></g><g fill="#000000" fill-opacity="1"><g transform="translate(19.301182, 21.925167)"><g><path d="M -12.21875 10.78125 C -12.789062 10.84375 -13.320312 10.835938 -13.8125 10.765625 C -14.3125 10.691406 -14.769531 10.535156 -15.1875 10.296875 C -15.28125 10.242188 -15.382812 10.164062 -15.5 10.0625 C -15.625 9.957031 -15.742188 9.828125 -15.859375 9.671875 C -15.984375 9.515625 -16.085938 9.332031 -16.171875 9.125 C -16.265625 8.925781 -16.328125 8.710938 -16.359375 8.484375 C -16.378906 8.253906 -16.359375 8.003906 -16.296875 7.734375 C -16.242188 7.472656 -16.128906 7.191406 -15.953125 6.890625 C -15.773438 6.597656 -15.523438 6.296875 -15.203125 5.984375 C -14.890625 5.671875 -14.484375 5.347656 -13.984375 5.015625 C -13.484375 4.691406 -12.890625 4.351562 -12.203125 4 C -11.640625 3.71875 -11.015625 3.453125 -10.328125 3.203125 C -9.648438 2.960938 -8.914062 2.726562 -8.125 2.5 C -7.34375 2.28125 -6.535156 2.0625 -5.703125 1.84375 C -4.867188 1.625 -4.015625 1.398438 -3.140625 1.171875 C -2.273438 0.941406 -1.410156 0.695312 -0.546875 0.4375 C 0.304688 0.1875 1.144531 -0.078125 1.96875 -0.359375 C 2.488281 -1.097656 2.945312 -1.804688 3.34375 -2.484375 C 3.75 -3.160156 4.101562 -3.78125 4.40625 -4.34375 C 4.707031 -4.90625 4.953125 -5.390625 5.140625 -5.796875 C 4.929688 -5.554688 4.695312 -5.289062 4.4375 -5 C 4.1875 -4.707031 3.925781 -4.40625 3.65625 -4.09375 C 3.382812 -3.789062 3.101562 -3.5 2.8125 -3.21875 C 2.519531 -2.9375 2.226562 -2.679688 1.9375 -2.453125 C 1.644531 -2.222656 1.359375 -2.03125 1.078125 -1.875 C 0.804688 -1.726562 0.550781 -1.640625 0.3125 -1.609375 C 0.25 -1.609375 0.1875 -1.601562 0.125 -1.59375 C 0.0703125 -1.59375 0.0195312 -1.601562 -0.03125 -1.625 C -0.300781 -1.675781 -0.507812 -1.785156 -0.65625 -1.953125 C -0.8125 -2.117188 -0.90625 -2.347656 -0.9375 -2.640625 C -0.96875 -2.921875 -0.941406 -3.25 -0.859375 -3.625 C -0.773438 -4 -0.640625 -4.394531 -0.453125 -4.8125 C -0.265625 -5.226562 -0.0351562 -5.640625 0.234375 -6.046875 C 0.503906 -6.460938 0.8125 -6.84375 1.15625 -7.1875 C 1.21875 -7.25 1.289062 -7.28125 1.375 -7.28125 C 1.488281 -7.300781 1.597656 -7.285156 1.703125 -7.234375 C 1.816406 -7.179688 1.910156 -7.113281 1.984375 -7.03125 C 2.054688 -6.957031 2.097656 -6.882812 2.109375 -6.8125 C 2.109375 -6.769531 2.097656 -6.738281 2.078125 -6.71875 C 1.617188 -6.15625 1.242188 -5.609375 0.953125 -5.078125 C 0.671875 -4.546875 0.460938 -4.046875 0.328125 -3.578125 C 0.203125 -3.109375 0.144531 -2.707031 0.15625 -2.375 C 0.164062 -2.269531 0.207031 -2.175781 0.28125 -2.09375 C 0.363281 -2.019531 0.476562 -1.992188 0.625 -2.015625 C 0.695312 -2.015625 0.773438 -2.035156 0.859375 -2.078125 C 0.953125 -2.117188 1.054688 -2.175781 1.171875 -2.25 C 1.691406 -2.644531 2.148438 -3.039062 2.546875 -3.4375 C 2.953125 -3.84375 3.304688 -4.226562 3.609375 -4.59375 C 3.921875 -4.96875 4.210938 -5.304688 4.484375 -5.609375 C 4.554688 -5.703125 4.640625 -5.816406 4.734375 -5.953125 C 4.835938 -6.085938 4.941406 -6.234375 5.046875 -6.390625 C 5.160156 -6.554688 5.269531 -6.707031 5.375 -6.84375 C 5.476562 -6.988281 5.566406 -7.117188 5.640625 -7.234375 C 5.671875 -7.273438 5.71875 -7.300781 5.78125 -7.3125 C 5.820312 -7.3125 5.875 -7.304688 5.9375 -7.296875 C 6.03125 -7.265625 6.125 -7.191406 6.21875 -7.078125 C 6.3125 -6.960938 6.363281 -6.847656 6.375 -6.734375 C 6.394531 -6.617188 6.375 -6.484375 6.3125 -6.328125 C 6.25 -6.179688 6.1875 -6.035156 6.125 -5.890625 C 6.09375 -5.816406 6 -5.628906 5.84375 -5.328125 C 5.695312 -5.035156 5.5 -4.664062 5.25 -4.21875 C 5.007812 -3.769531 4.710938 -3.253906 4.359375 -2.671875 C 4.015625 -2.097656 3.613281 -1.476562 3.15625 -0.8125 C 4.039062 -1.164062 4.875 -1.546875 5.65625 -1.953125 C 6.445312 -2.367188 7.148438 -2.828125 7.765625 -3.328125 C 8.390625 -3.828125 8.90625 -4.382812 9.3125 -5 C 9.332031 -5.019531 9.359375 -5.039062 9.390625 -5.0625 C 9.421875 -5.082031 9.445312 -5.09375 9.46875 -5.09375 C 9.5 -5.09375 9.515625 -5.082031 9.515625 -5.0625 C 9.515625 -5.050781 9.507812 -5.035156 9.5 -5.015625 C 9.019531 -4.296875 8.441406 -3.65625 7.765625 -3.09375 C 7.097656 -2.539062 6.351562 -2.050781 5.53125 -1.625 C 4.707031 -1.195312 3.835938 -0.8125 2.921875 -0.46875 C 2.484375 0.164062 2 0.820312 1.46875 1.5 C 0.9375 2.175781 0.367188 2.851562 -0.234375 3.53125 C -0.835938 4.207031 -1.488281 4.867188 -2.1875 5.515625 C -2.894531 6.160156 -3.632812 6.769531 -4.40625 7.34375 C -5.175781 7.914062 -5.984375 8.4375 -6.828125 8.90625 C -7.671875 9.382812 -8.554688 9.789062 -9.484375 10.125 C -9.960938 10.289062 -10.429688 10.429688 -10.890625 10.546875 C -11.359375 10.660156 -11.800781 10.738281 -12.21875 10.78125 Z M -12.625 10.46875 C -12.039062 10.40625 -11.46875 10.285156 -10.90625 10.109375 C -10.351562 9.941406 -9.804688 9.734375 -9.265625 9.484375 C -8.734375 9.242188 -8.207031 8.972656 -7.6875 8.671875 C -7.175781 8.367188 -6.679688 8.0625 -6.203125 7.75 C -5.335938 7.1875 -4.53125 6.585938 -3.78125 5.953125 C -3.03125 5.316406 -2.320312 4.664062 -1.65625 4 C -1 3.332031 -0.390625 2.65625 0.171875 1.96875 C 0.742188 1.289062 1.265625 0.613281 1.734375 -0.0625 C 0.847656 0.25 -0.0664062 0.53125 -1.015625 0.78125 C -1.960938 1.039062 -2.910156 1.289062 -3.859375 1.53125 C -4.816406 1.78125 -5.769531 2.035156 -6.71875 2.296875 C -7.664062 2.554688 -8.582031 2.84375 -9.46875 3.15625 C -10.363281 3.46875 -11.21875 3.816406 -12.03125 4.203125 C -12.8125 4.585938 -13.472656 4.96875 -14.015625 5.34375 C -14.566406 5.71875 -14.992188 6.085938 -15.296875 6.453125 C -15.609375 6.816406 -15.828125 7.171875 -15.953125 7.515625 C -16.085938 7.867188 -16.140625 8.195312 -16.109375 8.5 C -16.078125 8.800781 -15.96875 9.078125 -15.78125 9.328125 C -15.59375 9.585938 -15.347656 9.804688 -15.046875 9.984375 C -14.753906 10.171875 -14.425781 10.3125 -14.0625 10.40625 C -13.695312 10.5 -13.316406 10.53125 -12.921875 10.5 Z M -12.625 10.46875 "/></g></g></g><g clip-path="url(#0d77b82471)"><g fill="#000000" fill-opacity="1"><g transform="translate(28.867646, 20.915614)"><g><path d="M 4.859375 -1.3125 C 4.484375 -1.28125 4.191406 -1.335938 3.984375 -1.484375 C 3.785156 -1.640625 3.671875 -1.867188 3.640625 -2.171875 C 3.617188 -2.378906 3.628906 -2.613281 3.671875 -2.875 C 3.722656 -3.132812 3.796875 -3.410156 3.890625 -3.703125 C 3.984375 -3.992188 4.09375 -4.285156 4.21875 -4.578125 C 4.34375 -4.878906 4.484375 -5.179688 4.640625 -5.484375 C 4.398438 -5.148438 4.140625 -4.8125 3.859375 -4.46875 C 3.585938 -4.125 3.304688 -3.789062 3.015625 -3.46875 C 2.722656 -3.144531 2.421875 -2.851562 2.109375 -2.59375 C 1.796875 -2.332031 1.492188 -2.113281 1.203125 -1.9375 C 0.910156 -1.757812 0.625 -1.65625 0.34375 -1.625 C 0.132812 -1.601562 -0.0625 -1.628906 -0.25 -1.703125 C -0.488281 -1.785156 -0.664062 -1.898438 -0.78125 -2.046875 C -0.90625 -2.203125 -0.976562 -2.382812 -1 -2.59375 C -1.03125 -2.851562 -0.992188 -3.144531 -0.890625 -3.46875 C -0.796875 -3.800781 -0.65625 -4.144531 -0.46875 -4.5 C -0.332031 -4.789062 -0.15625 -5.09375 0.0625 -5.40625 C 0.28125 -5.71875 0.539062 -6.019531 0.84375 -6.3125 C 1.144531 -6.601562 1.5 -6.875 1.90625 -7.125 C 2.132812 -7.257812 2.363281 -7.363281 2.59375 -7.4375 C 2.832031 -7.507812 3.0625 -7.554688 3.28125 -7.578125 C 3.5625 -7.609375 3.820312 -7.59375 4.0625 -7.53125 C 4.300781 -7.476562 4.503906 -7.378906 4.671875 -7.234375 C 4.847656 -7.085938 4.96875 -6.898438 5.03125 -6.671875 C 5.132812 -6.847656 5.234375 -7 5.328125 -7.125 C 5.429688 -7.257812 5.515625 -7.367188 5.578125 -7.453125 C 5.609375 -7.484375 5.648438 -7.5 5.703125 -7.5 C 5.773438 -7.507812 5.863281 -7.476562 5.96875 -7.40625 C 6.070312 -7.34375 6.160156 -7.253906 6.234375 -7.140625 C 6.316406 -7.023438 6.363281 -6.898438 6.375 -6.765625 C 6.382812 -6.660156 6.367188 -6.566406 6.328125 -6.484375 C 6.222656 -6.285156 6.09375 -6.046875 5.9375 -5.765625 C 5.78125 -5.484375 5.613281 -5.1875 5.4375 -4.875 C 5.269531 -4.570312 5.113281 -4.257812 4.96875 -3.9375 C 4.820312 -3.613281 4.707031 -3.304688 4.625 -3.015625 C 4.539062 -2.722656 4.507812 -2.460938 4.53125 -2.234375 C 4.550781 -2.078125 4.613281 -1.941406 4.71875 -1.828125 C 4.832031 -1.710938 5.007812 -1.664062 5.25 -1.6875 C 5.457031 -1.707031 5.695312 -1.773438 5.96875 -1.890625 C 6.25 -2.003906 6.539062 -2.148438 6.84375 -2.328125 C 7.15625 -2.503906 7.46875 -2.707031 7.78125 -2.9375 C 8.101562 -3.164062 8.410156 -3.398438 8.703125 -3.640625 C 9.003906 -3.890625 9.273438 -4.132812 9.515625 -4.375 C 9.753906 -4.625 9.953125 -4.859375 10.109375 -5.078125 C 10.148438 -5.128906 10.191406 -5.15625 10.234375 -5.15625 C 10.273438 -5.15625 10.296875 -5.140625 10.296875 -5.109375 C 10.296875 -5.097656 10.289062 -5.082031 10.28125 -5.0625 C 10.144531 -4.882812 9.960938 -4.671875 9.734375 -4.421875 C 9.515625 -4.179688 9.25 -3.925781 8.9375 -3.65625 C 8.625 -3.382812 8.289062 -3.113281 7.9375 -2.84375 C 7.59375 -2.582031 7.238281 -2.34375 6.875 -2.125 C 6.519531 -1.914062 6.171875 -1.734375 5.828125 -1.578125 C 5.484375 -1.429688 5.160156 -1.34375 4.859375 -1.3125 Z M 0.46875 -2.078125 C 0.601562 -2.085938 0.757812 -2.140625 0.9375 -2.234375 C 1.125 -2.328125 1.316406 -2.445312 1.515625 -2.59375 C 1.722656 -2.738281 1.925781 -2.898438 2.125 -3.078125 C 2.320312 -3.253906 2.507812 -3.425781 2.6875 -3.59375 C 2.90625 -3.820312 3.128906 -4.082031 3.359375 -4.375 C 3.597656 -4.664062 3.832031 -4.976562 4.0625 -5.3125 C 4.300781 -5.644531 4.523438 -5.960938 4.734375 -6.265625 C 4.703125 -6.585938 4.597656 -6.804688 4.421875 -6.921875 C 4.253906 -7.046875 4.054688 -7.097656 3.828125 -7.078125 C 3.597656 -7.046875 3.351562 -6.960938 3.09375 -6.828125 C 2.832031 -6.703125 2.585938 -6.539062 2.359375 -6.34375 C 2.203125 -6.21875 2.023438 -6.039062 1.828125 -5.8125 C 1.628906 -5.59375 1.429688 -5.335938 1.234375 -5.046875 C 1.035156 -4.765625 0.847656 -4.460938 0.671875 -4.140625 C 0.492188 -3.828125 0.347656 -3.503906 0.234375 -3.171875 C 0.117188 -2.816406 0.0703125 -2.550781 0.09375 -2.375 C 0.101562 -2.25 0.140625 -2.164062 0.203125 -2.125 C 0.273438 -2.082031 0.363281 -2.066406 0.46875 -2.078125 Z M 0.46875 -2.078125 "/></g></g></g></g><g fill="#000000" fill-opacity="1"><g transform="translate(15.233842, 23.253819)"><g><path d="M 0.796875 -1.546875 C 0.722656 -1.546875 0.660156 -1.554688 0.609375 -1.578125 C 0.566406 -1.597656 0.539062 -1.644531 0.53125 -1.71875 C 0.519531 -1.8125 0.5625 -1.914062 0.65625 -2.03125 C 0.757812 -2.144531 0.878906 -2.242188 1.015625 -2.328125 C 1.160156 -2.421875 1.289062 -2.472656 1.40625 -2.484375 C 1.519531 -2.492188 1.609375 -2.46875 1.671875 -2.40625 C 1.679688 -2.382812 1.691406 -2.359375 1.703125 -2.328125 C 1.710938 -2.234375 1.664062 -2.128906 1.5625 -2.015625 C 1.457031 -1.898438 1.332031 -1.796875 1.1875 -1.703125 C 1.039062 -1.617188 0.910156 -1.566406 0.796875 -1.546875 Z M 0.796875 -1.546875 "/></g></g></g></svg>