<svg xmlns="http://www.w3.org/2000/svg" xmlns:xlink="http://www.w3.org/1999/xlink" width="200" zoomAndPan="magnify" viewBox="0 0 150 37.5" height="50" preserveAspectRatio="xMidYMid meet" version="1.0"><defs><g/><clipPath id="76cd1e3063"><path d="M 44 1 L 64 1 L 64 33 L 44 33 Z M 44 1 " clip-rule="nonzero"/></clipPath><clipPath id="2c5d5800e9"><path d="M 25.347656 29.292969 L 31.132812 -2 L 66.066406 4.457031 L 60.28125 35.753906 Z M 25.347656 29.292969 " clip-rule="nonzero"/></clipPath><clipPath id="0ec530b1f9"><path d="M 31.085938 -1.738281 L 25.300781 29.554688 L 60.234375 36.011719 L 66.019531 4.71875 Z M 31.085938 -1.738281 " clip-rule="nonzero"/></clipPath><clipPath id="83d04b34e9"><path d="M 45.078125 0.847656 L 39.445312 31.335938 L 60.355469 35.199219 L 65.992188 4.714844 Z M 45.078125 0.847656 " clip-rule="nonzero"/></clipPath><clipPath id="022a4ccbfc"><path d="M 29 2 L 51 2 L 51 11 L 29 11 Z M 29 2 " clip-rule="nonzero"/></clipPath><clipPath id="35412f6b48"><path d="M 25.347656 29.292969 L 31.132812 -2 L 66.066406 4.457031 L 60.28125 35.753906 Z M 25.347656 29.292969 " clip-rule="nonzero"/></clipPath><clipPath id="ac54fa21be"><path d="M 31.085938 -1.738281 L 25.300781 29.554688 L 60.234375 36.011719 L 66.019531 4.71875 Z M 31.085938 -1.738281 " clip-rule="nonzero"/></clipPath><clipPath id="9398fe5918"><path d="M 29 24 L 52 24 L 52 32 L 29 32 Z M 29 24 " clip-rule="nonzero"/></clipPath><clipPath id="7f9d7aadbc"><path d="M 25.347656 29.292969 L 31.132812 -2 L 66.066406 4.457031 L 60.28125 35.753906 Z M 25.347656 29.292969 " clip-rule="nonzero"/></clipPath><clipPath id="7fa061c1f9"><path d="M 31.085938 -1.738281 L 25.300781 29.554688 L 60.234375 36.011719 L 66.019531 4.71875 Z M 31.085938 -1.738281 " clip-rule="nonzero"/></clipPath></defs><g fill="#000000" fill-opacity="1"><g transform="translate(91.820365, 23.010686)"><g><path d="M -18.234375 13.453125 C -19.023438 13.460938 -19.757812 13.382812 -20.4375 13.21875 C -21.125 13.050781 -21.738281 12.78125 -22.28125 12.40625 C -22.394531 12.34375 -22.53125 12.226562 -22.6875 12.0625 C -22.84375 11.894531 -22.992188 11.695312 -23.140625 11.46875 C -23.285156 11.25 -23.40625 10.992188 -23.5 10.703125 C -23.601562 10.410156 -23.660156 10.097656 -23.671875 9.765625 C -23.679688 9.441406 -23.628906 9.101562 -23.515625 8.75 C -23.398438 8.394531 -23.203125 8.023438 -22.921875 7.640625 C -22.640625 7.253906 -22.257812 6.863281 -21.78125 6.46875 C -21.300781 6.070312 -20.695312 5.671875 -19.96875 5.265625 C -19.238281 4.859375 -18.375 4.457031 -17.375 4.0625 C -16.5625 3.75 -15.664062 3.46875 -14.6875 3.21875 C -13.71875 2.96875 -12.679688 2.734375 -11.578125 2.515625 C -10.472656 2.296875 -9.320312 2.078125 -8.125 1.859375 C -6.9375 1.648438 -5.726562 1.4375 -4.5 1.21875 C -3.269531 1.007812 -2.039062 0.78125 -0.8125 0.53125 C 0.40625 0.289062 1.597656 0.0234375 2.765625 -0.265625 C 3.578125 -1.234375 4.300781 -2.160156 4.9375 -3.046875 C 5.582031 -3.929688 6.144531 -4.742188 6.625 -5.484375 C 7.101562 -6.234375 7.492188 -6.878906 7.796875 -7.421875 C 7.492188 -7.109375 7.148438 -6.757812 6.765625 -6.375 C 6.378906 -6 5.976562 -5.617188 5.5625 -5.234375 C 5.144531 -4.847656 4.71875 -4.472656 4.28125 -4.109375 C 3.84375 -3.753906 3.410156 -3.4375 2.984375 -3.15625 C 2.554688 -2.875 2.140625 -2.644531 1.734375 -2.46875 C 1.328125 -2.300781 0.957031 -2.21875 0.625 -2.21875 C 0.539062 -2.21875 0.457031 -2.21875 0.375 -2.21875 C 0.300781 -2.21875 0.226562 -2.234375 0.15625 -2.265625 C -0.207031 -2.367188 -0.488281 -2.539062 -0.6875 -2.78125 C -0.882812 -3.03125 -0.984375 -3.359375 -0.984375 -3.765625 C -0.992188 -4.148438 -0.914062 -4.597656 -0.75 -5.109375 C -0.59375 -5.617188 -0.359375 -6.148438 -0.046875 -6.703125 C 0.253906 -7.265625 0.617188 -7.8125 1.046875 -8.34375 C 1.472656 -8.875 1.945312 -9.363281 2.46875 -9.8125 C 2.5625 -9.882812 2.671875 -9.925781 2.796875 -9.9375 C 2.941406 -9.9375 3.085938 -9.890625 3.234375 -9.796875 C 3.378906 -9.710938 3.5 -9.613281 3.59375 -9.5 C 3.6875 -9.382812 3.734375 -9.28125 3.734375 -9.1875 C 3.734375 -9.125 3.710938 -9.078125 3.671875 -9.046875 C 2.984375 -8.335938 2.40625 -7.628906 1.9375 -6.921875 C 1.46875 -6.210938 1.113281 -5.539062 0.875 -4.90625 C 0.644531 -4.28125 0.519531 -3.738281 0.5 -3.28125 C 0.5 -3.132812 0.546875 -3.003906 0.640625 -2.890625 C 0.742188 -2.773438 0.894531 -2.71875 1.09375 -2.71875 C 1.195312 -2.726562 1.316406 -2.75 1.453125 -2.78125 C 1.585938 -2.820312 1.734375 -2.894531 1.890625 -3 C 2.671875 -3.476562 3.359375 -3.96875 3.953125 -4.46875 C 4.554688 -4.96875 5.09375 -5.457031 5.5625 -5.9375 C 6.039062 -6.414062 6.476562 -6.847656 6.875 -7.234375 C 6.988281 -7.347656 7.125 -7.492188 7.28125 -7.671875 C 7.4375 -7.859375 7.597656 -8.050781 7.765625 -8.25 C 7.941406 -8.457031 8.109375 -8.648438 8.265625 -8.828125 C 8.421875 -9.015625 8.554688 -9.175781 8.671875 -9.3125 C 8.734375 -9.375 8.804688 -9.410156 8.890625 -9.421875 C 8.941406 -9.421875 9.003906 -9.40625 9.078125 -9.375 C 9.210938 -9.320312 9.335938 -9.210938 9.453125 -9.046875 C 9.578125 -8.890625 9.640625 -8.726562 9.640625 -8.5625 C 9.640625 -8.40625 9.585938 -8.222656 9.484375 -8.015625 C 9.378906 -7.804688 9.273438 -7.609375 9.171875 -7.421875 C 9.117188 -7.328125 8.972656 -7.082031 8.734375 -6.6875 C 8.492188 -6.300781 8.175781 -5.8125 7.78125 -5.21875 C 7.382812 -4.625 6.90625 -3.941406 6.34375 -3.171875 C 5.789062 -2.410156 5.164062 -1.597656 4.46875 -0.734375 C 5.75 -1.117188 6.953125 -1.550781 8.078125 -2.03125 C 9.210938 -2.507812 10.238281 -3.054688 11.15625 -3.671875 C 12.082031 -4.285156 12.863281 -4.988281 13.5 -5.78125 C 13.519531 -5.820312 13.550781 -5.847656 13.59375 -5.859375 C 13.644531 -5.878906 13.6875 -5.890625 13.71875 -5.890625 C 13.769531 -5.890625 13.796875 -5.875 13.796875 -5.84375 C 13.796875 -5.832031 13.785156 -5.816406 13.765625 -5.796875 C 13.015625 -4.867188 12.132812 -4.054688 11.125 -3.359375 C 10.125 -2.671875 9.03125 -2.078125 7.84375 -1.578125 C 6.664062 -1.085938 5.421875 -0.660156 4.109375 -0.296875 C 3.421875 0.523438 2.664062 1.375 1.84375 2.25 C 1.03125 3.125 0.160156 3.992188 -0.765625 4.859375 C -1.691406 5.734375 -2.671875 6.570312 -3.703125 7.375 C -4.742188 8.175781 -5.832031 8.925781 -6.96875 9.625 C -8.113281 10.332031 -9.300781 10.960938 -10.53125 11.515625 C -11.769531 12.078125 -13.039062 12.523438 -14.34375 12.859375 C -15.039062 13.035156 -15.710938 13.175781 -16.359375 13.28125 C -17.003906 13.382812 -17.628906 13.441406 -18.234375 13.453125 Z M -18.75 12.96875 C -17.9375 12.957031 -17.132812 12.867188 -16.34375 12.703125 C -15.550781 12.535156 -14.765625 12.3125 -13.984375 12.03125 C -13.210938 11.75 -12.453125 11.429688 -11.703125 11.078125 C -10.960938 10.734375 -10.234375 10.363281 -9.515625 9.96875 C -8.273438 9.300781 -7.09375 8.570312 -5.96875 7.78125 C -4.84375 7 -3.78125 6.179688 -2.78125 5.328125 C -1.789062 4.484375 -0.863281 3.617188 0 2.734375 C 0.875 1.859375 1.675781 0.992188 2.40625 0.140625 C 1.144531 0.441406 -0.15625 0.710938 -1.5 0.953125 C -2.84375 1.191406 -4.191406 1.425781 -5.546875 1.65625 C -6.898438 1.882812 -8.242188 2.125 -9.578125 2.375 C -10.910156 2.632812 -12.210938 2.921875 -13.484375 3.234375 C -14.765625 3.554688 -15.992188 3.9375 -17.171875 4.375 C -18.316406 4.800781 -19.28125 5.242188 -20.0625 5.703125 C -20.851562 6.171875 -21.488281 6.640625 -21.96875 7.109375 C -22.445312 7.578125 -22.796875 8.039062 -23.015625 8.5 C -23.234375 8.957031 -23.335938 9.394531 -23.328125 9.8125 C -23.316406 10.25 -23.195312 10.65625 -22.96875 11.03125 C -22.75 11.414062 -22.445312 11.75 -22.0625 12.03125 C -21.675781 12.3125 -21.234375 12.535156 -20.734375 12.703125 C -20.242188 12.867188 -19.71875 12.957031 -19.15625 12.96875 Z M -18.75 12.96875 "/></g></g></g><g fill="#000000" fill-opacity="1"><g transform="translate(105.193488, 22.76503)"><g><path d="M 6.90625 -1.234375 C 6.375 -1.222656 5.972656 -1.332031 5.703125 -1.5625 C 5.441406 -1.800781 5.304688 -2.132812 5.296875 -2.5625 C 5.296875 -2.863281 5.34375 -3.191406 5.4375 -3.546875 C 5.53125 -3.898438 5.660156 -4.269531 5.828125 -4.65625 C 6.003906 -5.039062 6.195312 -5.4375 6.40625 -5.84375 C 6.625 -6.25 6.847656 -6.640625 7.078125 -7.015625 C 6.710938 -6.609375 6.316406 -6.175781 5.890625 -5.71875 C 5.460938 -5.269531 5.023438 -4.84375 4.578125 -4.4375 C 4.140625 -4.03125 3.691406 -3.660156 3.234375 -3.328125 C 2.785156 -3.003906 2.34375 -2.742188 1.90625 -2.546875 C 1.476562 -2.347656 1.066406 -2.242188 0.671875 -2.234375 C 0.378906 -2.222656 0.113281 -2.273438 -0.125 -2.390625 C -0.445312 -2.535156 -0.679688 -2.71875 -0.828125 -2.9375 C -0.984375 -3.164062 -1.0625 -3.429688 -1.0625 -3.734375 C -1.070312 -4.085938 -0.988281 -4.484375 -0.8125 -4.921875 C -0.644531 -5.359375 -0.410156 -5.816406 -0.109375 -6.296875 C 0.109375 -6.671875 0.390625 -7.0625 0.734375 -7.46875 C 1.078125 -7.875 1.472656 -8.257812 1.921875 -8.625 C 2.378906 -9 2.90625 -9.328125 3.5 -9.609375 C 3.832031 -9.773438 4.160156 -9.894531 4.484375 -9.96875 C 4.816406 -10.050781 5.132812 -10.097656 5.4375 -10.109375 C 5.84375 -10.109375 6.210938 -10.050781 6.546875 -9.9375 C 6.878906 -9.820312 7.148438 -9.65625 7.359375 -9.4375 C 7.566406 -9.21875 7.703125 -8.953125 7.765625 -8.640625 C 7.941406 -8.859375 8.101562 -9.050781 8.25 -9.21875 C 8.394531 -9.382812 8.519531 -9.523438 8.625 -9.640625 C 8.675781 -9.679688 8.734375 -9.707031 8.796875 -9.71875 C 8.898438 -9.71875 9.015625 -9.660156 9.140625 -9.546875 C 9.265625 -9.429688 9.375 -9.289062 9.46875 -9.125 C 9.570312 -8.957031 9.625 -8.785156 9.625 -8.609375 C 9.625 -8.460938 9.59375 -8.328125 9.53125 -8.203125 C 9.375 -7.941406 9.171875 -7.628906 8.921875 -7.265625 C 8.671875 -6.898438 8.410156 -6.507812 8.140625 -6.09375 C 7.867188 -5.6875 7.609375 -5.269531 7.359375 -4.84375 C 7.117188 -4.414062 6.921875 -4.007812 6.765625 -3.625 C 6.617188 -3.238281 6.546875 -2.882812 6.546875 -2.5625 C 6.554688 -2.332031 6.628906 -2.128906 6.765625 -1.953125 C 6.910156 -1.773438 7.148438 -1.691406 7.484375 -1.703125 C 7.765625 -1.703125 8.101562 -1.765625 8.5 -1.890625 C 8.894531 -2.015625 9.316406 -2.179688 9.765625 -2.390625 C 10.210938 -2.609375 10.671875 -2.851562 11.140625 -3.125 C 11.609375 -3.40625 12.0625 -3.695312 12.5 -4 C 12.9375 -4.3125 13.335938 -4.617188 13.703125 -4.921875 C 14.066406 -5.234375 14.378906 -5.523438 14.640625 -5.796875 C 14.679688 -5.859375 14.734375 -5.894531 14.796875 -5.90625 C 14.847656 -5.90625 14.875 -5.882812 14.875 -5.84375 C 14.882812 -5.820312 14.878906 -5.796875 14.859375 -5.765625 C 14.648438 -5.535156 14.367188 -5.265625 14.015625 -4.953125 C 13.660156 -4.640625 13.253906 -4.316406 12.796875 -3.984375 C 12.347656 -3.648438 11.863281 -3.320312 11.34375 -3 C 10.832031 -2.675781 10.3125 -2.382812 9.78125 -2.125 C 9.257812 -1.863281 8.75 -1.648438 8.25 -1.484375 C 7.757812 -1.328125 7.3125 -1.242188 6.90625 -1.234375 Z M 0.90625 -2.8125 C 1.101562 -2.8125 1.328125 -2.863281 1.578125 -2.96875 C 1.835938 -3.082031 2.117188 -3.226562 2.421875 -3.40625 C 2.722656 -3.582031 3.023438 -3.78125 3.328125 -4 C 3.628906 -4.226562 3.90625 -4.445312 4.15625 -4.65625 C 4.476562 -4.9375 4.820312 -5.269531 5.1875 -5.65625 C 5.5625 -6.039062 5.925781 -6.445312 6.28125 -6.875 C 6.644531 -7.300781 6.992188 -7.710938 7.328125 -8.109375 C 7.316406 -8.554688 7.195312 -8.867188 6.96875 -9.046875 C 6.75 -9.234375 6.472656 -9.320312 6.140625 -9.3125 C 5.816406 -9.3125 5.46875 -9.234375 5.09375 -9.078125 C 4.726562 -8.929688 4.375 -8.738281 4.03125 -8.5 C 3.800781 -8.34375 3.535156 -8.117188 3.234375 -7.828125 C 2.929688 -7.546875 2.625 -7.21875 2.3125 -6.84375 C 2 -6.476562 1.695312 -6.082031 1.40625 -5.65625 C 1.125 -5.238281 0.890625 -4.804688 0.703125 -4.359375 C 0.515625 -3.890625 0.421875 -3.535156 0.421875 -3.296875 C 0.421875 -3.128906 0.460938 -3.003906 0.546875 -2.921875 C 0.640625 -2.847656 0.757812 -2.8125 0.90625 -2.8125 Z M 0.90625 -2.8125 "/></g></g></g><g fill="#000000" fill-opacity="1"><g transform="translate(66.415679, 22.345538)"><g><path d="M -1.40625 -1.15625 C -1.457031 -1.15625 -1.507812 -1.175781 -1.5625 -1.21875 C -1.613281 -1.269531 -1.660156 -1.332031 -1.703125 -1.40625 C -1.742188 -1.488281 -1.773438 -1.5625 -1.796875 -1.625 C -1.828125 -1.695312 -1.84375 -1.753906 -1.84375 -1.796875 C -1.832031 -1.921875 -1.800781 -2.023438 -1.75 -2.109375 C -1.695312 -2.203125 -1.644531 -2.296875 -1.59375 -2.390625 C -1.46875 -2.597656 -1.359375 -2.773438 -1.265625 -2.921875 C -1.179688 -3.078125 -1.101562 -3.210938 -1.03125 -3.328125 C -0.957031 -3.453125 -0.882812 -3.570312 -0.8125 -3.6875 C -0.738281 -3.8125 -0.65625 -3.945312 -0.5625 -4.09375 C -0.476562 -4.25 -0.375 -4.421875 -0.25 -4.609375 C 0.0625 -5.078125 0.375 -5.550781 0.6875 -6.03125 C 1.007812 -6.519531 1.335938 -6.992188 1.671875 -7.453125 C 2.128906 -8.078125 2.59375 -8.679688 3.0625 -9.265625 C 3.53125 -9.859375 4.007812 -10.4375 4.5 -11 C 5 -11.570312 5.523438 -12.140625 6.078125 -12.703125 C 5.160156 -12.660156 4.273438 -12.550781 3.421875 -12.375 C 2.578125 -12.207031 1.742188 -11.941406 0.921875 -11.578125 C 0.421875 -11.335938 -0.0546875 -11.054688 -0.515625 -10.734375 C -0.972656 -10.410156 -1.375 -10.023438 -1.71875 -9.578125 C -1.738281 -9.546875 -1.769531 -9.53125 -1.8125 -9.53125 C -1.84375 -9.53125 -1.875 -9.539062 -1.90625 -9.5625 C -1.9375 -9.59375 -1.953125 -9.625 -1.953125 -9.65625 C -1.953125 -9.6875 -1.941406 -9.71875 -1.921875 -9.75 C -1.554688 -10.207031 -1.132812 -10.601562 -0.65625 -10.9375 C -0.175781 -11.28125 0.328125 -11.570312 0.859375 -11.8125 C 1.398438 -12.050781 1.945312 -12.242188 2.5 -12.390625 C 3.050781 -12.546875 3.597656 -12.671875 4.140625 -12.765625 C 4.503906 -12.828125 4.867188 -12.875 5.234375 -12.90625 C 5.597656 -12.9375 5.96875 -12.960938 6.34375 -12.984375 C 7.113281 -13.765625 7.921875 -14.507812 8.765625 -15.21875 C 9.609375 -15.925781 10.492188 -16.582031 11.421875 -17.1875 C 12.191406 -17.664062 12.976562 -18.082031 13.78125 -18.4375 C 14.582031 -18.800781 15.410156 -19.054688 16.265625 -19.203125 C 16.421875 -19.222656 16.578125 -19.238281 16.734375 -19.25 C 16.890625 -19.257812 17.046875 -19.269531 17.203125 -19.28125 C 17.503906 -19.28125 17.804688 -19.253906 18.109375 -19.203125 C 18.410156 -19.160156 18.695312 -19.070312 18.96875 -18.9375 C 19.25 -18.8125 19.5 -18.632812 19.71875 -18.40625 C 19.875 -18.226562 19.992188 -18.035156 20.078125 -17.828125 C 20.171875 -17.617188 20.21875 -17.40625 20.21875 -17.1875 C 20.226562 -16.757812 20.128906 -16.363281 19.921875 -16 C 19.722656 -15.632812 19.476562 -15.320312 19.1875 -15.0625 C 18.957031 -14.851562 18.71875 -14.671875 18.46875 -14.515625 C 18.226562 -14.367188 17.976562 -14.226562 17.71875 -14.09375 C 17.1875 -13.832031 16.640625 -13.617188 16.078125 -13.453125 C 15.523438 -13.296875 14.96875 -13.160156 14.40625 -13.046875 C 13.71875 -12.929688 13.03125 -12.847656 12.34375 -12.796875 C 11.664062 -12.742188 10.988281 -12.707031 10.3125 -12.6875 C 9.863281 -12.6875 9.414062 -12.6875 8.96875 -12.6875 C 8.519531 -12.695312 8.070312 -12.707031 7.625 -12.71875 C 7.195312 -12.28125 6.765625 -11.816406 6.328125 -11.328125 C 5.890625 -10.835938 5.453125 -10.332031 5.015625 -9.8125 C 4.585938 -9.289062 4.171875 -8.769531 3.765625 -8.25 C 3.367188 -7.738281 2.988281 -7.238281 2.625 -6.75 L 1.203125 -4.84375 C 1.617188 -5.207031 2.054688 -5.566406 2.515625 -5.921875 C 2.984375 -6.273438 3.53125 -6.640625 4.15625 -7.015625 C 4.445312 -7.203125 4.738281 -7.367188 5.03125 -7.515625 C 5.320312 -7.660156 5.609375 -7.78125 5.890625 -7.875 C 6.179688 -7.96875 6.441406 -8.015625 6.671875 -8.015625 C 6.796875 -8.015625 6.90625 -8 7 -7.96875 C 7.1875 -7.9375 7.335938 -7.847656 7.453125 -7.703125 C 7.566406 -7.554688 7.628906 -7.398438 7.640625 -7.234375 C 7.640625 -7.179688 7.632812 -7.128906 7.625 -7.078125 C 7.5625 -6.847656 7.441406 -6.597656 7.265625 -6.328125 C 7.097656 -6.054688 6.894531 -5.78125 6.65625 -5.5 C 6.414062 -5.21875 6.171875 -4.9375 5.921875 -4.65625 C 5.679688 -4.375 5.453125 -4.09375 5.234375 -3.8125 C 5.023438 -3.539062 4.851562 -3.28125 4.71875 -3.03125 C 4.59375 -2.78125 4.53125 -2.554688 4.53125 -2.359375 C 4.539062 -2.140625 4.625 -1.972656 4.78125 -1.859375 C 4.9375 -1.753906 5.160156 -1.703125 5.453125 -1.703125 C 5.703125 -1.710938 5.976562 -1.753906 6.28125 -1.828125 C 6.582031 -1.910156 6.894531 -2.015625 7.21875 -2.140625 C 7.539062 -2.265625 7.863281 -2.40625 8.1875 -2.5625 C 8.519531 -2.71875 8.828125 -2.882812 9.109375 -3.0625 C 9.398438 -3.238281 9.65625 -3.410156 9.875 -3.578125 C 10.101562 -3.753906 10.269531 -3.921875 10.375 -4.078125 C 10.40625 -4.109375 10.445312 -4.140625 10.5 -4.171875 C 10.550781 -4.203125 10.585938 -4.21875 10.609375 -4.21875 C 10.617188 -4.21875 10.625 -4.210938 10.625 -4.203125 C 10.625 -4.191406 10.613281 -4.175781 10.59375 -4.15625 C 10.28125 -3.8125 9.925781 -3.492188 9.53125 -3.203125 C 9.132812 -2.921875 8.722656 -2.660156 8.296875 -2.421875 C 7.867188 -2.191406 7.441406 -1.992188 7.015625 -1.828125 C 6.597656 -1.671875 6.203125 -1.546875 5.828125 -1.453125 C 5.453125 -1.359375 5.113281 -1.3125 4.8125 -1.3125 C 4.582031 -1.300781 4.378906 -1.320312 4.203125 -1.375 C 3.984375 -1.445312 3.816406 -1.566406 3.703125 -1.734375 C 3.597656 -1.910156 3.539062 -2.117188 3.53125 -2.359375 C 3.53125 -2.679688 3.617188 -3.046875 3.796875 -3.453125 C 3.972656 -3.867188 4.242188 -4.289062 4.609375 -4.71875 C 4.953125 -5.113281 5.253906 -5.484375 5.515625 -5.828125 C 5.773438 -6.179688 5.976562 -6.476562 6.125 -6.71875 C 6.269531 -6.96875 6.34375 -7.132812 6.34375 -7.21875 C 6.34375 -7.28125 6.316406 -7.320312 6.265625 -7.34375 C 6.210938 -7.363281 6.148438 -7.375 6.078125 -7.375 C 5.929688 -7.375 5.75 -7.332031 5.53125 -7.25 C 5.3125 -7.164062 5.09375 -7.0625 4.875 -6.9375 C 4.3125 -6.613281 3.800781 -6.289062 3.34375 -5.96875 C 2.894531 -5.644531 2.472656 -5.3125 2.078125 -4.96875 C 1.679688 -4.625 1.296875 -4.257812 0.921875 -3.875 C 0.554688 -3.5 0.191406 -3.085938 -0.171875 -2.640625 C -0.535156 -2.203125 -0.921875 -1.71875 -1.328125 -1.1875 C -1.359375 -1.164062 -1.382812 -1.15625 -1.40625 -1.15625 Z M 10.15625 -12.96875 C 10.863281 -12.976562 11.570312 -13.019531 12.28125 -13.09375 C 13 -13.164062 13.6875 -13.269531 14.34375 -13.40625 C 14.882812 -13.507812 15.425781 -13.644531 15.96875 -13.8125 C 16.519531 -13.988281 17.035156 -14.203125 17.515625 -14.453125 C 17.847656 -14.609375 18.164062 -14.800781 18.46875 -15.03125 C 18.78125 -15.257812 19.046875 -15.507812 19.265625 -15.78125 C 19.484375 -16.050781 19.628906 -16.351562 19.703125 -16.6875 C 19.742188 -16.832031 19.757812 -16.96875 19.75 -17.09375 C 19.75 -17.28125 19.710938 -17.453125 19.640625 -17.609375 C 19.578125 -17.773438 19.476562 -17.925781 19.34375 -18.0625 C 19.1875 -18.226562 19 -18.359375 18.78125 -18.453125 C 18.570312 -18.546875 18.335938 -18.609375 18.078125 -18.640625 C 17.828125 -18.679688 17.578125 -18.703125 17.328125 -18.703125 C 16.898438 -18.691406 16.472656 -18.628906 16.046875 -18.515625 C 15.617188 -18.398438 15.203125 -18.265625 14.796875 -18.109375 C 14.273438 -17.898438 13.773438 -17.65625 13.296875 -17.375 C 12.816406 -17.09375 12.351562 -16.789062 11.90625 -16.46875 C 11.1875 -15.957031 10.492188 -15.410156 9.828125 -14.828125 C 9.160156 -14.242188 8.515625 -13.632812 7.890625 -13 C 8.265625 -12.976562 8.640625 -12.96875 9.015625 -12.96875 C 9.398438 -12.96875 9.78125 -12.96875 10.15625 -12.96875 Z M 10.15625 -12.96875 "/></g></g></g><g fill="#000000" fill-opacity="1"><g transform="translate(76.942652, 22.152164)"><g><path d="M 5.03125 -0.90625 C 4.644531 -0.894531 4.351562 -0.972656 4.15625 -1.140625 C 3.957031 -1.316406 3.859375 -1.5625 3.859375 -1.875 C 3.859375 -2.09375 3.894531 -2.328125 3.96875 -2.578125 C 4.039062 -2.835938 4.132812 -3.109375 4.25 -3.390625 C 4.375 -3.671875 4.515625 -3.957031 4.671875 -4.25 C 4.835938 -4.550781 5 -4.84375 5.15625 -5.125 C 4.882812 -4.820312 4.59375 -4.503906 4.28125 -4.171875 C 3.976562 -3.847656 3.664062 -3.535156 3.34375 -3.234375 C 3.019531 -2.929688 2.691406 -2.660156 2.359375 -2.421875 C 2.035156 -2.179688 1.710938 -1.988281 1.390625 -1.84375 C 1.078125 -1.707031 0.773438 -1.640625 0.484375 -1.640625 C 0.273438 -1.628906 0.0820312 -1.664062 -0.09375 -1.75 C -0.320312 -1.851562 -0.492188 -1.984375 -0.609375 -2.140625 C -0.722656 -2.304688 -0.78125 -2.5 -0.78125 -2.71875 C -0.789062 -2.976562 -0.726562 -3.269531 -0.59375 -3.59375 C -0.46875 -3.914062 -0.296875 -4.25 -0.078125 -4.59375 C 0.078125 -4.863281 0.28125 -5.144531 0.53125 -5.4375 C 0.78125 -5.726562 1.070312 -6.007812 1.40625 -6.28125 C 1.738281 -6.5625 2.117188 -6.804688 2.546875 -7.015625 C 2.785156 -7.128906 3.023438 -7.210938 3.265625 -7.265625 C 3.503906 -7.328125 3.734375 -7.363281 3.953125 -7.375 C 4.253906 -7.375 4.523438 -7.332031 4.765625 -7.25 C 5.015625 -7.164062 5.210938 -7.039062 5.359375 -6.875 C 5.515625 -6.71875 5.617188 -6.523438 5.671875 -6.296875 C 5.785156 -6.453125 5.894531 -6.585938 6 -6.703125 C 6.113281 -6.828125 6.210938 -6.9375 6.296875 -7.03125 C 6.328125 -7.0625 6.363281 -7.078125 6.40625 -7.078125 C 6.488281 -7.078125 6.570312 -7.035156 6.65625 -6.953125 C 6.75 -6.878906 6.832031 -6.78125 6.90625 -6.65625 C 6.976562 -6.53125 7.015625 -6.398438 7.015625 -6.265625 C 7.015625 -6.160156 6.988281 -6.066406 6.9375 -5.984375 C 6.820312 -5.796875 6.671875 -5.566406 6.484375 -5.296875 C 6.304688 -5.023438 6.117188 -4.738281 5.921875 -4.4375 C 5.722656 -4.144531 5.535156 -3.84375 5.359375 -3.53125 C 5.191406 -3.21875 5.050781 -2.921875 4.9375 -2.640625 C 4.832031 -2.359375 4.78125 -2.101562 4.78125 -1.875 C 4.78125 -1.707031 4.832031 -1.554688 4.9375 -1.421875 C 5.039062 -1.296875 5.21875 -1.234375 5.46875 -1.234375 C 5.664062 -1.242188 5.90625 -1.289062 6.1875 -1.375 C 6.46875 -1.46875 6.773438 -1.59375 7.109375 -1.75 C 7.441406 -1.90625 7.773438 -2.082031 8.109375 -2.28125 C 8.453125 -2.476562 8.78125 -2.6875 9.09375 -2.90625 C 9.414062 -3.132812 9.710938 -3.359375 9.984375 -3.578125 C 10.253906 -3.804688 10.476562 -4.023438 10.65625 -4.234375 C 10.695312 -4.273438 10.738281 -4.296875 10.78125 -4.296875 C 10.820312 -4.296875 10.84375 -4.285156 10.84375 -4.265625 C 10.84375 -4.242188 10.832031 -4.222656 10.8125 -4.203125 C 10.675781 -4.035156 10.476562 -3.835938 10.21875 -3.609375 C 9.957031 -3.390625 9.660156 -3.15625 9.328125 -2.90625 C 8.992188 -2.65625 8.640625 -2.410156 8.265625 -2.171875 C 7.898438 -1.941406 7.523438 -1.734375 7.140625 -1.546875 C 6.753906 -1.359375 6.378906 -1.203125 6.015625 -1.078125 C 5.648438 -0.960938 5.320312 -0.90625 5.03125 -0.90625 Z M 0.671875 -2.046875 C 0.804688 -2.046875 0.96875 -2.085938 1.15625 -2.171875 C 1.34375 -2.253906 1.546875 -2.359375 1.765625 -2.484375 C 1.984375 -2.617188 2.203125 -2.765625 2.421875 -2.921875 C 2.640625 -3.078125 2.84375 -3.238281 3.03125 -3.40625 C 3.269531 -3.601562 3.519531 -3.84375 3.78125 -4.125 C 4.050781 -4.40625 4.316406 -4.703125 4.578125 -5.015625 C 4.847656 -5.328125 5.097656 -5.625 5.328125 -5.90625 C 5.328125 -6.226562 5.242188 -6.457031 5.078125 -6.59375 C 4.910156 -6.738281 4.707031 -6.804688 4.46875 -6.796875 C 4.238281 -6.796875 3.984375 -6.738281 3.703125 -6.625 C 3.429688 -6.507812 3.179688 -6.367188 2.953125 -6.203125 C 2.773438 -6.078125 2.578125 -5.910156 2.359375 -5.703125 C 2.140625 -5.492188 1.914062 -5.253906 1.6875 -4.984375 C 1.457031 -4.722656 1.238281 -4.4375 1.03125 -4.125 C 0.820312 -3.820312 0.648438 -3.503906 0.515625 -3.171875 C 0.367188 -2.828125 0.296875 -2.566406 0.296875 -2.390625 C 0.296875 -2.265625 0.328125 -2.175781 0.390625 -2.125 C 0.460938 -2.070312 0.554688 -2.046875 0.671875 -2.046875 Z M 0.671875 -2.046875 "/></g></g></g><g fill="#000000" fill-opacity="1"><g transform="translate(87.535172, 21.957587)"><g><path d="M 0.046875 -0.84375 C -0.335938 -0.832031 -0.625 -0.910156 -0.8125 -1.078125 C -1.007812 -1.253906 -1.109375 -1.5 -1.109375 -1.8125 C -1.117188 -2.03125 -1.082031 -2.269531 -1 -2.53125 C -0.925781 -2.789062 -0.828125 -3.0625 -0.703125 -3.34375 C -0.578125 -3.632812 -0.4375 -3.925781 -0.28125 -4.21875 C -0.125 -4.507812 0.0234375 -4.789062 0.171875 -5.0625 C 0.347656 -5.351562 0.507812 -5.632812 0.65625 -5.90625 C 0.8125 -6.175781 0.945312 -6.40625 1.0625 -6.59375 C 1.175781 -6.789062 1.257812 -6.914062 1.3125 -6.96875 C 1.34375 -7 1.382812 -7.015625 1.4375 -7.015625 C 1.507812 -7.015625 1.59375 -6.972656 1.6875 -6.890625 C 1.78125 -6.816406 1.859375 -6.722656 1.921875 -6.609375 C 1.992188 -6.492188 2.035156 -6.367188 2.046875 -6.234375 C 2.046875 -6.117188 2.015625 -6.015625 1.953125 -5.921875 C 1.859375 -5.765625 1.738281 -5.578125 1.59375 -5.359375 C 1.457031 -5.148438 1.304688 -4.921875 1.140625 -4.671875 C 0.984375 -4.429688 0.820312 -4.179688 0.65625 -3.921875 C 0.5 -3.671875 0.351562 -3.414062 0.21875 -3.15625 C 0.09375 -2.90625 -0.00390625 -2.664062 -0.078125 -2.4375 C -0.160156 -2.207031 -0.203125 -1.992188 -0.203125 -1.796875 C -0.203125 -1.640625 -0.148438 -1.492188 -0.046875 -1.359375 C 0.0546875 -1.234375 0.234375 -1.175781 0.484375 -1.1875 C 0.691406 -1.1875 0.9375 -1.234375 1.21875 -1.328125 C 1.5 -1.421875 1.800781 -1.539062 2.125 -1.6875 C 2.457031 -1.84375 2.789062 -2.019531 3.125 -2.21875 C 3.46875 -2.414062 3.800781 -2.625 4.125 -2.84375 C 4.445312 -3.070312 4.742188 -3.296875 5.015625 -3.515625 C 5.285156 -3.742188 5.503906 -3.960938 5.671875 -4.171875 C 5.710938 -4.222656 5.757812 -4.25 5.8125 -4.25 C 5.84375 -4.25 5.859375 -4.234375 5.859375 -4.203125 C 5.859375 -4.179688 5.851562 -4.160156 5.84375 -4.140625 C 5.695312 -3.972656 5.492188 -3.773438 5.234375 -3.546875 C 4.972656 -3.328125 4.675781 -3.09375 4.34375 -2.84375 C 4.007812 -2.601562 3.65625 -2.363281 3.28125 -2.125 C 2.914062 -1.882812 2.539062 -1.671875 2.15625 -1.484375 C 1.769531 -1.296875 1.394531 -1.144531 1.03125 -1.03125 C 0.675781 -0.914062 0.347656 -0.851562 0.046875 -0.84375 Z M 3.109375 -7.484375 C 3.085938 -7.484375 3.0625 -7.484375 3.03125 -7.484375 C 3.007812 -7.484375 2.988281 -7.488281 2.96875 -7.5 C 2.769531 -7.507812 2.597656 -7.554688 2.453125 -7.640625 C 2.304688 -7.722656 2.191406 -7.816406 2.109375 -7.921875 C 2.035156 -8.023438 1.992188 -8.117188 1.984375 -8.203125 C 1.984375 -8.304688 2.035156 -8.378906 2.140625 -8.421875 C 2.179688 -8.429688 2.21875 -8.4375 2.25 -8.4375 C 2.289062 -8.445312 2.332031 -8.453125 2.375 -8.453125 C 2.476562 -8.453125 2.585938 -8.4375 2.703125 -8.40625 C 2.816406 -8.375 2.941406 -8.320312 3.078125 -8.25 C 3.171875 -8.1875 3.257812 -8.101562 3.34375 -8 C 3.425781 -7.894531 3.46875 -7.800781 3.46875 -7.71875 C 3.46875 -7.65625 3.4375 -7.597656 3.375 -7.546875 C 3.320312 -7.503906 3.234375 -7.484375 3.109375 -7.484375 Z M 3.109375 -7.484375 "/></g></g></g><g clip-path="url(#76cd1e3063)"><g clip-path="url(#2c5d5800e9)"><g clip-path="url(#0ec530b1f9)"><g clip-path="url(#83d04b34e9)"><path fill="#af0000" d="M 48.179688 31.84375 C 51.375 30.578125 54.179688 28.015625 55.871094 24.8125 C 55.980469 24.605469 56.101562 24.355469 56.226562 24.074219 C 57.199219 21.867188 57.6875 19.433594 57.648438 17.015625 C 57.644531 16.917969 57.644531 16.820312 57.640625 16.71875 C 57.636719 16.621094 57.632812 16.523438 57.625 16.421875 C 57.496094 14.007812 56.835938 11.617188 55.710938 9.484375 C 55.566406 9.214844 55.429688 8.972656 55.304688 8.769531 C 53.390625 5.699219 50.414062 3.339844 47.132812 2.304688 C 46.414062 2.074219 45.6875 1.890625 44.953125 1.746094 C 47.472656 1.433594 50.238281 1.570312 53.148438 2.488281 C 56.445312 3.53125 59.316406 5.867188 61.144531 8.804688 C 61.277344 9.019531 61.414062 9.261719 61.554688 9.527344 C 63.867188 13.894531 64.050781 19.097656 62.054688 23.617188 C 61.933594 23.890625 61.8125 24.144531 61.695312 24.367188 C 60.078125 27.425781 57.382812 29.960938 54.164062 31.234375 C 51.328125 32.355469 48.578125 32.6875 46.042969 32.554688 C 46.765625 32.359375 47.476562 32.121094 48.179688 31.84375 " fill-opacity="1" fill-rule="nonzero"/></g></g></g></g><g clip-path="url(#022a4ccbfc)"><g clip-path="url(#35412f6b48)"><g clip-path="url(#ac54fa21be)"><path fill="#af0000" d="M 49.75 5.726562 C 50.023438 5.988281 50.277344 6.257812 50.511719 6.539062 C 50.097656 6.386719 49.664062 6.253906 49.207031 6.144531 C 42.808594 4.625 36.300781 7.734375 31.4375 10.894531 L 29.292969 7.984375 C 29.957031 7.414062 30.65625 6.84375 31.382812 6.296875 L 32.234375 7.332031 C 32.921875 6.835938 34.917969 5.257812 37.8125 3.882812 C 41.796875 1.988281 46.566406 2.671875 49.75 5.726562 " fill-opacity="1" fill-rule="nonzero"/></g></g></g><g clip-path="url(#9398fe5918)"><g clip-path="url(#7f9d7aadbc)"><g clip-path="url(#7fa061c1f9)"><path fill="#af0000" d="M 50.546875 28.242188 C 50.800781 27.964844 51.035156 27.675781 51.25 27.378906 C 50.847656 27.5625 50.421875 27.726562 49.976562 27.863281 C 43.699219 29.832031 36.988281 27.191406 31.914062 24.382812 L 29.980469 27.4375 C 30.6875 27.960938 31.421875 28.476562 32.1875 28.972656 L 32.960938 27.878906 C 33.679688 28.328125 35.785156 29.757812 38.769531 30.925781 C 42.878906 32.535156 47.585938 31.515625 50.546875 28.242188 " fill-opacity="1" fill-rule="nonzero"/></g></g></g></svg>